<svg xmlns="http://www.w3.org/2000/svg" xmlns:xlink="http://www.w3.org/1999/xlink" width="1080" zoomAndPan="magnify" viewBox="0 0 810 809.999993" height="1080" preserveAspectRatio="xMidYMid meet" version="1.0"><defs><clipPath id="7997e6e855"><path d="M 418 131 L 700.683594 131 L 700.683594 796.632812 L 418 796.632812 Z M 418 131 " clip-rule="nonzero"/></clipPath><clipPath id="799c66bc77"><path d="M 109.683594 13.632812 L 392 13.632812 L 392 663 L 109.683594 663 Z M 109.683594 13.632812 " clip-rule="nonzero"/></clipPath></defs><path fill="#949598" d="M 569.007812 507.417969 L 532.445312 507.417969 C 536.1875 518.691406 543.722656 527.285156 554.996094 534.816406 C 529.265625 511.15625 534.625 509.539062 569.007812 507.417969 Z M 569.007812 507.417969 " fill-opacity="1" fill-rule="evenodd"/><g clip-path="url(#7997e6e855)"><path fill="#949598" d="M 418.578125 132.039062 L 418.578125 230.644531 C 419.082031 231.703125 419.25 232.929688 418.578125 234.214844 L 418.578125 240.964844 C 425.054688 247.273438 436.550781 261.277344 426.113281 272.550781 C 429.351562 272.550781 434.152344 281.144531 426.113281 285.441406 C 442.746094 296.710938 512.632812 276.289062 529.824219 268.253906 C 549.695312 258.597656 564.207031 261.78125 580.898438 274.726562 C 582.515625 276.34375 584.636719 277.40625 586.253906 277.960938 L 586.253906 276.847656 C 586.8125 275.785156 587.875 275.226562 588.433594 275.785156 C 589.492188 275.785156 589.492188 276.34375 590.050781 276.847656 L 590.609375 278.464844 C 592.730469 277.90625 593.289062 274.726562 590.609375 268.253906 C 602.945312 273.109375 601.328125 285.441406 593.289062 289.738281 L 621.253906 389.175781 L 652.957031 501.503906 C 652.957031 502.0625 652.957031 502.0625 652.957031 502.5625 C 645.421875 531.582031 619.632812 552.5625 587.929688 552.5625 C 556.785156 552.5625 530.4375 531.582031 523.460938 502.5625 L 523.460938 501.449219 L 554.605469 389.121094 L 582.570312 289.679688 C 575.59375 287.003906 571.855469 279.46875 564.820312 276.234375 C 555.667969 272.492188 547.628906 272.492188 537.414062 278.910156 C 508.949219 297.160156 460.554688 319.199219 426.167969 312.226562 C 426.167969 312.226562 428.847656 321.878906 420.8125 327.292969 C 423.492188 327.292969 428.847656 336.441406 418.632812 340.179688 L 418.632812 437.164062 C 421.3125 459.820312 424.605469 479.851562 427.230469 488 C 427.230469 488 432.085938 497.152344 422.375 497.652344 C 428.289062 498.210938 434.207031 506.246094 423.433594 511.605469 C 423.433594 511.605469 459.996094 534.707031 422.875 565.898438 C 428.234375 565.898438 435.769531 576.109375 422.875 580.40625 L 470.152344 579.851562 L 470.152344 598.097656 L 444.367188 598.097656 L 444.367188 613.164062 L 426.113281 613.164062 C 426.113281 613.164062 416.960938 642.179688 514.753906 641.121094 L 514.753906 647.59375 L 561.527344 652.449219 L 561.527344 662.101562 L 418.578125 662.101562 L 418.578125 796.191406 L 700.683594 796.527344 L 700.683594 131.816406 Z M 418.578125 132.039062 " fill-opacity="1" fill-rule="evenodd"/></g><path fill="#949598" d="M 586.199219 290.796875 L 558.289062 390.234375 L 527.648438 500.445312 L 586.199219 500.445312 Z M 586.199219 290.796875 " fill-opacity="1" fill-rule="evenodd"/><path fill="#949598" d="M 617.902344 390.234375 L 589.996094 290.796875 L 589.996094 500.445312 L 648.546875 500.445312 Z M 617.902344 390.234375 " fill-opacity="1" fill-rule="evenodd"/><g clip-path="url(#799c66bc77)"><path fill="#4c5963" d="M 248.222656 656.855469 L 248.222656 652.558594 L 295.5 647.703125 L 295.5 641.230469 C 393.292969 642.292969 384.140625 613.273438 384.140625 613.273438 L 365.886719 613.273438 L 365.886719 598.207031 L 340.097656 598.207031 L 340.097656 579.960938 L 386.875 580.519531 C 374.539062 576.222656 382.019531 566.011719 386.875 566.011719 C 350.3125 534.816406 386.875 511.714844 386.875 511.714844 C 376.101562 506.359375 382.019531 498.265625 387.933594 497.765625 C 377.71875 497.207031 383.078125 488.113281 383.078125 488.113281 C 385.589844 479.742188 388.9375 458.871094 391.675781 435.492188 L 391.675781 340.238281 C 381.460938 336.5 386.316406 327.347656 389.496094 327.347656 C 380.902344 321.988281 383.582031 312.28125 383.582031 312.28125 C 349.699219 319.253906 301.359375 297.214844 272.894531 278.96875 C 262.679688 272.492188 254.640625 272.492188 244.929688 276.289062 C 238.511719 279.523438 234.714844 287.058594 227.179688 289.738281 L 255.144531 389.175781 L 286.847656 501.503906 C 286.847656 502.0625 286.847656 502.0625 286.847656 502.5625 C 279.3125 531.582031 252.964844 552.5625 221.820312 552.5625 C 190.675781 552.5625 164.328125 531.582031 156.792969 502.5625 L 156.792969 501.449219 L 188.554688 389.175781 L 216.515625 289.738281 C 208.980469 285.441406 207.363281 273.050781 219.753906 268.253906 C 216.515625 274.726562 217.074219 277.90625 219.753906 278.464844 L 220.3125 276.847656 C 220.3125 275.785156 221.375 275.226562 222.488281 275.785156 C 223.046875 275.785156 223.550781 276.34375 223.550781 276.847656 L 224.109375 277.90625 C 225.726562 277.347656 227.347656 276.289062 229.46875 274.671875 C 246.101562 261.78125 260.613281 258.542969 280.539062 268.195312 C 297.734375 276.234375 367.617188 296.710938 383.691406 285.382812 C 375.65625 281.085938 380.453125 272.492188 384.25 272.492188 C 373.03125 260.832031 385.476562 246.433594 391.785156 240.464844 L 391.785156 234.605469 C 390.835938 233.042969 391.003906 231.589844 391.785156 230.308594 L 391.785156 13.910156 L 109.683594 13.742188 L 109.683594 662.214844 L 248.332031 662.046875 L 248.332031 656.855469 Z M 248.222656 656.855469 " fill-opacity="1" fill-rule="evenodd"/></g><path fill="#4c5963" d="M 282.605469 500.445312 L 251.960938 390.234375 L 224.054688 290.796875 L 224.054688 500.445312 Z M 282.605469 500.445312 " fill-opacity="1" fill-rule="evenodd"/><path fill="#4c5963" d="M 385.757812 269.3125 C 385.3125 263.511719 387.65625 256.703125 391.675781 249.058594 L 391.675781 247.496094 C 385.03125 254.300781 382.464844 261.78125 385.757812 269.3125 Z M 385.757812 269.3125 " fill-opacity="1" fill-rule="evenodd"/><path fill="#4c5963" d="M 202.507812 507.417969 L 166.503906 507.417969 C 169.742188 518.691406 177.222656 527.285156 188.554688 534.816406 C 163.324219 511.15625 168.125 509.539062 202.507812 507.417969 Z M 202.507812 507.417969 " fill-opacity="1" fill-rule="evenodd"/><path fill="#4c5963" d="M 378.277344 547.207031 C 377.21875 535.933594 379.898438 526.78125 385.253906 518.691406 C 376.101562 526.222656 373.980469 535.878906 378.277344 547.207031 Z M 378.277344 547.207031 " fill-opacity="1" fill-rule="evenodd"/><path fill="#4c5963" d="M 220.257812 290.796875 L 192.347656 390.234375 L 161.144531 500.445312 L 220.257812 500.445312 Z M 220.257812 290.796875 " fill-opacity="1" fill-rule="evenodd"/></svg>